STARTFONT 2.1
FONT -FontForge-Ubuntu Mono-Book-R-Normal--89-850-75-75-C-500-ISO10646-1
SIZE 85 75 75
FONTBOUNDINGBOX 42 64 4 -1
COMMENT "Generated by fontforge, http://fontforge.sourceforge.net"
COMMENT "Copyright 2011, 2022 Canonical Ltd.  Licensed under the Ubuntu Font Licence 1.0"
STARTPROPERTIES 36
FOUNDRY "FontForge"
FAMILY_NAME "Ubuntu Mono"
WEIGHT_NAME "Book"
SLANT "R"
SETWIDTH_NAME "Normal"
ADD_STYLE_NAME ""
PIXEL_SIZE 89
POINT_SIZE 850
RESOLUTION_X 75
RESOLUTION_Y 75
SPACING "C"
AVERAGE_WIDTH 500
CHARSET_REGISTRY "ISO10646"
CHARSET_ENCODING "1"
FONTNAME_REGISTRY ""
CHARSET_COLLECTIONS "ISO10646-1"
FONT_NAME "UbuntuMono-Regular"
FACE_NAME "Ubuntu Mono Regular"
COPYRIGHT "Copyright 2011, 2022 Canonical Ltd.  Licensed under the Ubuntu Font Licence 1.0"
FONT_VERSION "0.862"
FONT_ASCENT 71
FONT_DESCENT 18
UNDERLINE_POSITION -16
UNDERLINE_THICKNESS 8
RAW_ASCENT 800
RAW_DESCENT 200
NORM_SPACE 50
RELATIVE_WEIGHT 40
RELATIVE_SETWIDTH 50
SUPERSCRIPT_X 0
SUPERSCRIPT_Y 31
SUPERSCRIPT_SIZE 53
SUBSCRIPT_X 0
SUBSCRIPT_Y 6
SUBSCRIPT_SIZE 53
FIGURE_WIDTH 50
ENDPROPERTIES
CHARS 12
STARTCHAR space
ENCODING 32
SWIDTH 560 0
DWIDTH 50 0
BBX 1 1 0 0
BITMAP
00
ENDCHAR
STARTCHAR zero
ENCODING 48
SWIDTH 560 0
DWIDTH 50 0
BBX 40 64 5 -1
BITMAP
0001FF8000
0007FFE000
001FFFF800
007FFFFE00
00FFFFFF00
01FFFFFF80
01FFC3FF80
03FE007FC0
07FC003FE0
07F8001FE0
0FF0000FF0
0FE0000FF0
1FE00007F8
1FC00007F8
3FC00003F8
3FC00003FC
3F800001FC
3F800001FC
7F800001FE
7F800001FE
7F000001FE
7F000000FE
7F000000FE
FF000000FE
FF000000FE
FF007E00FF
FF00FF00FF
FF01FF80FF
FF01FF80FF
FF03FFC0FF
FF03FFC0FF
FF03FFC0FF
FF03FFC0FF
FF01FF80FF
FF01FF80FF
FF00FF00FF
FF007E00FF
FF000000FF
FF000000FF
FF000000FF
FF000000FE
7F000000FE
7F000000FE
7F000001FE
7F800001FE
7F800001FE
7F800001FC
3F800001FC
3FC00003FC
3FC00003FC
1FC00003F8
1FE00007F8
1FE00007F0
0FF0000FF0
0FF8001FE0
07F8003FE0
03FE007FC0
03FF81FFC0
01FFFFFF80
00FFFFFF00
007FFFFE00
003FFFF800
000FFFF000
0003FFC000
ENDCHAR
STARTCHAR one
ENCODING 49
SWIDTH 560 0
DWIDTH 50 0
BBX 35 62 8 0
BITMAP
00003F0000
00003F0000
00007F0000
0000FF0000
0001FF0000
0007FF0000
000FFF0000
001FFF0000
007FFF0000
00FFFF0000
03FF7F0000
0FFE7F0000
3FFC7F0000
FFF07F0000
7FC07F0000
7F007F0000
3C007F0000
30007F0000
00007F0000
00007F0000
00007F0000
00007F0000
00007F0000
00007F0000
00007F0000
00007F0000
00007F0000
00007F0000
00007F0000
00007F0000
00007F0000
00007F0000
00007F0000
00007F0000
00007F0000
00007F0000
00007F0000
00007F0000
00007F0000
00007F0000
00007F0000
00007F0000
00007F0000
00007F0000
00007F0000
00007F0000
00007F0000
00007F0000
00007F0000
00007F0000
00007F0000
00007F0000
00007F0000
00007F0000
00007F0000
00007F0000
1FFFFFFFE0
1FFFFFFFE0
1FFFFFFFE0
1FFFFFFFE0
1FFFFFFFE0
1FFFFFFFE0
ENDCHAR
STARTCHAR two
ENCODING 50
SWIDTH 560 0
DWIDTH 50 0
BBX 38 63 6 0
BITMAP
001FFE0000
00FFFFE000
03FFFFF800
0FFFFFFC00
1FFFFFFE00
3FFFFFFF00
7FFC0FFF80
FFC001FF80
7F00007FC0
3E00003FC0
1C00001FE0
1000001FE0
0000000FE0
0000000FE0
0000000FE0
0000000FE0
0000000FE0
0000000FE0
0000000FE0
0000000FE0
0000000FE0
0000000FE0
0000001FC0
0000001FC0
0000003FC0
0000007F80
0000007F80
000000FF00
000001FE00
000003FE00
000007FC00
000007F800
00000FF000
00001FE000
00003FC000
00007FC000
0000FF8000
0001FF0000
0003FE0000
0007FC0000
000FF80000
001FF00000
003FE00000
007FC00000
00FF800000
01FF000000
01FE000000
03FC000000
07FC000000
07F8000000
0FF0000000
0FE0000000
1FE0000000
1FC0000000
3FC0000000
3F80000000
3F80000000
3FFFFFFFFC
7FFFFFFFFC
7FFFFFFFFC
7FFFFFFFFC
7FFFFFFFFC
7FFFFFFFFC
ENDCHAR
STARTCHAR three
ENCODING 51
SWIDTH 560 0
DWIDTH 50 0
BBX 38 64 6 -1
BITMAP
001FFE0000
00FFFFC000
07FFFFF000
1FFFFFFC00
3FFFFFFE00
3FFFFFFF00
1FF80FFF80
1F8001FF80
0E00007FC0
0800003FC0
0000003FC0
0000001FE0
0000001FE0
0000000FE0
0000000FE0
0000000FE0
0000000FE0
0000000FE0
0000000FE0
0000001FE0
0000001FC0
0000001FC0
0000003F80
0000007F80
000000FF00
000003FE00
00001FFC00
000FFFF800
000FFFF000
000FFFC000
000FFFF000
000FFFFC00
000FFFFF00
00000FFF80
000001FFC0
0000007FE0
0000001FE0
0000000FF0
00000007F0
00000007F8
00000003F8
00000003F8
00000003FC
00000001FC
00000001FC
00000001FC
00000001FC
00000001FC
00000003FC
00000003F8
00000003F8
00000007F8
00000007F8
0000000FF0
0000001FF0
2000003FE0
7C0000FFE0
7F8007FFC0
7FFFFFFF80
7FFFFFFF00
7FFFFFFE00
FFFFFFF800
0FFFFFE000
00FFFE0000
ENDCHAR
STARTCHAR four
ENCODING 52
SWIDTH 560 0
DWIDTH 50 0
BBX 42 62 4 0
BITMAP
0000000FE000
0000001FE000
0000003FE000
0000007FE000
000000FFE000
000001FFE000
000003FFE000
000007FFE000
00000FFFE000
00001FEFE000
00001FCFE000
00003F8FE000
00007F0FE000
0000FE0FE000
0000FE0FE000
0001FC0FE000
0003F80FE000
0003F00FE000
0007F00FE000
000FE00FE000
001FC00FE000
001F800FE000
003F800FE000
007F000FE000
007E000FE000
00FE000FE000
00FC000FE000
01FC000FE000
03F8000FE000
03F0000FE000
07F0000FE000
07E0000FE000
0FE0000FE000
0FC0000FE000
1FC0000FE000
1F80000FE000
3F00000FE000
3F00000FE000
7E00000FE000
7E00000FE000
FFFFFFFFFFC0
FFFFFFFFFFC0
FFFFFFFFFFC0
FFFFFFFFFFC0
FFFFFFFFFFC0
FFFFFFFFFFC0
0000000FE000
0000000FE000
0000000FE000
0000000FE000
0000000FE000
0000000FE000
0000000FE000
0000000FE000
0000000FE000
0000000FE000
0000000FE000
0000000FE000
0000000FE000
0000000FE000
0000000FE000
0000000FE000
ENDCHAR
STARTCHAR five
ENCODING 53
SWIDTH 560 0
DWIDTH 50 0
BBX 36 63 8 -1
BITMAP
07FFFFFFC0
07FFFFFFC0
07FFFFFFC0
07FFFFFFC0
07FFFFFFC0
07FFFFFFC0
07E0000000
07E0000000
07E0000000
07E0000000
07E0000000
07E0000000
07E0000000
07E0000000
07E0000000
0FE0000000
0FE0000000
0FE0000000
0FE0000000
0FE0000000
0FC0000000
0FC0000000
0FC0000000
0FC0000000
0FE0000000
0FFFE00000
1FFFFE0000
1FFFFFC000
1FFFFFE000
1FFFFFF800
00FFFFFC00
0000FFFE00
00000FFF00
000003FF80
000000FF80
0000007FC0
0000003FC0
0000001FE0
0000001FE0
0000000FE0
0000000FE0
0000000FF0
00000007F0
00000007F0
00000007F0
00000007F0
00000007F0
00000007F0
0000000FF0
0000000FE0
0000000FE0
0000001FE0
0000003FC0
0000007FC0
400000FFC0
780003FF80
FF001FFF00
FFFFFFFE00
FFFFFFFC00
FFFFFFF800
FFFFFFF000
1FFFFF8000
01FFFC0000
ENDCHAR
STARTCHAR six
ENCODING 54
SWIDTH 560 0
DWIDTH 50 0
BBX 39 63 6 -1
BITMAP
0000000FC0
000001FFC0
00000FFFC0
00003FFFE0
0000FFFFE0
0003FFFFE0
0007FFF800
001FFF0000
003FF80000
007FE00000
00FF800000
01FF000000
01FE000000
03FC000000
07F8000000
07F0000000
0FE0000000
1FE0000000
1FC0000000
1FC0000000
3F80000000
3F80000000
3F80000000
7F00000000
7F00000000
7F07FFE000
FF7FFFFC00
FFFFFFFE00
FFFFFFFF80
FFFFFFFFC0
FFFF8FFFE0
FFE0007FE0
FF00001FF0
FE00000FF8
FE000007F8
FE000007F8
FE000003FC
FE000003FC
FE000001FC
FE000001FC
FE000001FC
FE000001FE
FE000001FE
FE000001FE
FE000001FE
FF000001FC
FF000001FC
7F000001FC
7F000001FC
7F800003FC
3F800003F8
3FC00007F8
3FC00007F8
1FE0000FF0
1FF0001FF0
0FF8003FE0
07FE007FC0
03FFFFFF80
01FFFFFF80
00FFFFFE00
007FFFFC00
001FFFF000
0007FFC000
ENDCHAR
STARTCHAR seven
ENCODING 55
SWIDTH 560 0
DWIDTH 50 0
BBX 38 62 7 0
BITMAP
FFFFFFFFFC
FFFFFFFFFC
FFFFFFFFFC
FFFFFFFFFC
FFFFFFFFFC
FFFFFFFFFC
FFFFFFFFFC
00000003FC
00000007F8
0000000FF0
0000000FE0
0000001FE0
0000003FC0
0000003F80
0000007F80
000000FF00
000000FE00
000001FE00
000001FC00
000003FC00
000003F800
000007F800
000007F000
00000FF000
00000FE000
00001FE000
00001FC000
00003FC000
00003F8000
00007F8000
00007F0000
00007F0000
0000FF0000
0000FE0000
0000FE0000
0001FC0000
0001FC0000
0003FC0000
0003F80000
0003F80000
0003F80000
0007F00000
0007F00000
0007F00000
000FF00000
000FE00000
000FE00000
000FE00000
001FE00000
001FC00000
001FC00000
001FC00000
003FC00000
003F800000
003F800000
003F800000
003F800000
003F800000
003F800000
007F800000
007F800000
007F000000
ENDCHAR
STARTCHAR eight
ENCODING 56
SWIDTH 560 0
DWIDTH 50 0
BBX 39 64 5 -1
BITMAP
0001FFC000
000FFFF800
003FFFFC00
00FFFFFF00
01FFFFFF80
03FFFFFFC0
07FE007FE0
07F8001FF0
0FF0000FF0
1FE00007F8
1FC00007F8
1FC00003F8
3F800003FC
3F800001FC
3F800001FC
3F800001FC
3F800001FC
3F800001FC
3F800001FC
3F800001FC
3FC00003F8
3FC00003F8
1FE00003F8
1FE00007F0
1FF0000FF0
0FF8001FE0
07FE003FC0
07FF007F80
03FFE0FF00
01FFFFFE00
007FFFFC00
003FFFFC00
007FFFFF00
00FFFFFF80
01FE0FFFC0
03FC01FFE0
07F0007FF0
0FE0001FF8
1FE0000FF8
1FC00007FC
3F800003FC
3F800001FE
7F000001FE
7F000000FE
7F000000FE
7F000000FE
FF000000FE
FE000000FE
FE000000FE
7F000000FE
7F000000FE
7F000000FE
7F800001FE
7F800001FC
3FC00003FC
3FE00007FC
1FF0000FF8
1FFC003FF0
0FFFFFFFF0
07FFFFFFE0
03FFFFFFC0
01FFFFFF00
007FFFFC00
000FFFE000
ENDCHAR
STARTCHAR nine
ENCODING 57
SWIDTH 560 0
DWIDTH 50 0
BBX 39 63 5 0
BITMAP
0003FF0000
001FFFE000
007FFFF800
00FFFFFE00
03FFFFFF00
07FFFFFF80
07FE01FFC0
0FF8003FE0
1FF0001FE0
1FE0000FF0
3FC00007F0
3FC00007F8
7F800003F8
7F800003FC
7F000001FC
7F000001FC
FF000001FC
FF000001FE
FF000001FE
FF000000FE
FF000000FE
FF000000FE
FF000000FE
7F000000FE
7F000000FE
7F000000FE
7F800000FE
7F800000FE
3FC00000FE
3FE00000FE
1FF00001FE
1FFC000FFE
0FFF81FFFE
07FFFFFFFE
03FFFFFFFE
01FFFFFFFE
007FFFFDFC
000FFFE1FC
00000001FC
00000001FC
00000003FC
00000003F8
00000003F8
00000007F8
00000007F0
0000000FF0
0000000FE0
0000001FE0
0000001FC0
0000003FC0
0000007F80
000000FF00
000003FF00
000007FE00
00001FFC00
0000FFF800
0007FFE000
1FFFFFC000
1FFFFF0000
1FFFFE0000
1FFFF00000
1FFF800000
0FF0000000
ENDCHAR
STARTCHAR colon
ENCODING 58
SWIDTH 560 0
DWIDTH 50 0
BBX 14 47 18 -1
BITMAP
0FC0
1FE0
3FF0
7FF8
7FF8
FFFC
FFFC
FFFC
FFFC
FFF8
7FF8
7FF0
3FF0
0FC0
0000
0000
0000
0000
0000
0000
0000
0000
0000
0000
0000
0000
0000
0000
0000
0000
0000
0000
0000
0FC0
3FF0
3FF0
7FF8
FFF8
FFFC
FFFC
FFFC
FFFC
FFF8
7FF8
3FF0
3FF0
0FC0
ENDCHAR
ENDFONT
